<mxfile host="Electron" modified="2023-05-30T04:28:10.471Z" agent="Mozilla/5.0 (Windows NT 10.0; Win64; x64) AppleWebKit/537.36 (KHTML, like Gecko) draw.io/21.2.8 Chrome/112.0.5615.165 Electron/24.2.0 Safari/537.36" etag="9aOarHdMc_EN6WdiFK6G" version="21.2.8" type="device">
  <diagram name="Page-1" id="tDGgZc7RzZIzJs8Wil9r">
    <mxGraphModel dx="661" dy="704" grid="1" gridSize="10" guides="1" tooltips="1" connect="1" arrows="1" fold="1" page="1" pageScale="1" pageWidth="850" pageHeight="1100" math="0" shadow="0">
      <root>
        <mxCell id="0" />
        <mxCell id="1" parent="0" />
        <mxCell id="6LP01InCkN6K7pd2CZUg-9" value="Stream" style="whiteSpace=wrap;html=1;labelPosition=center;verticalLabelPosition=bottom;align=center;verticalAlign=top;" vertex="1" parent="1">
          <mxGeometry x="495" y="320" width="140" height="175" as="geometry" />
        </mxCell>
        <mxCell id="6LP01InCkN6K7pd2CZUg-10" value="Kinesis Data Stream" style="fillColor=none;strokeColor=#147EBA;dashed=1;verticalAlign=bottom;fontStyle=0;fontColor=#147EBA;whiteSpace=wrap;html=1;" vertex="1" parent="1">
          <mxGeometry x="470" y="270" width="190" height="290" as="geometry" />
        </mxCell>
        <mxCell id="6LP01InCkN6K7pd2CZUg-8" value="Stream" style="whiteSpace=wrap;html=1;labelPosition=center;verticalLabelPosition=bottom;align=center;verticalAlign=top;" vertex="1" parent="1">
          <mxGeometry x="245" y="320" width="140" height="175" as="geometry" />
        </mxCell>
        <mxCell id="6LP01InCkN6K7pd2CZUg-1" value="Kinesis Data Stream" style="fillColor=none;strokeColor=#147EBA;dashed=1;verticalAlign=bottom;fontStyle=0;fontColor=#147EBA;whiteSpace=wrap;html=1;" vertex="1" parent="1">
          <mxGeometry x="220" y="270" width="190" height="290" as="geometry" />
        </mxCell>
        <mxCell id="6LP01InCkN6K7pd2CZUg-4" value="Shard 1" style="rounded=0;whiteSpace=wrap;html=1;fillColor=#fff2cc;strokeColor=#d6b656;" vertex="1" parent="1">
          <mxGeometry x="255" y="335" width="120" height="30" as="geometry" />
        </mxCell>
        <mxCell id="6LP01InCkN6K7pd2CZUg-26" style="edgeStyle=orthogonalEdgeStyle;rounded=0;orthogonalLoop=1;jettySize=auto;html=1;entryX=0;entryY=0.5;entryDx=0;entryDy=0;" edge="1" parent="1" source="6LP01InCkN6K7pd2CZUg-5" target="6LP01InCkN6K7pd2CZUg-25">
          <mxGeometry relative="1" as="geometry" />
        </mxCell>
        <mxCell id="6LP01InCkN6K7pd2CZUg-27" style="edgeStyle=orthogonalEdgeStyle;rounded=0;orthogonalLoop=1;jettySize=auto;html=1;" edge="1" parent="1" source="6LP01InCkN6K7pd2CZUg-5" target="6LP01InCkN6K7pd2CZUg-24">
          <mxGeometry relative="1" as="geometry" />
        </mxCell>
        <mxCell id="6LP01InCkN6K7pd2CZUg-5" value="Shard 2" style="rounded=0;whiteSpace=wrap;html=1;fillColor=#dae8fc;strokeColor=#6c8ebf;" vertex="1" parent="1">
          <mxGeometry x="255" y="378" width="120" height="65" as="geometry" />
        </mxCell>
        <mxCell id="6LP01InCkN6K7pd2CZUg-7" value="Shard 3" style="rounded=0;whiteSpace=wrap;html=1;fillColor=#e1d5e7;strokeColor=#9673a6;" vertex="1" parent="1">
          <mxGeometry x="255" y="455" width="120" height="30" as="geometry" />
        </mxCell>
        <mxCell id="6LP01InCkN6K7pd2CZUg-3" value="" style="sketch=0;points=[[0,0,0],[0.25,0,0],[0.5,0,0],[0.75,0,0],[1,0,0],[0,1,0],[0.25,1,0],[0.5,1,0],[0.75,1,0],[1,1,0],[0,0.25,0],[0,0.5,0],[0,0.75,0],[1,0.25,0],[1,0.5,0],[1,0.75,0]];outlineConnect=0;fontColor=#232F3E;gradientColor=#945DF2;gradientDirection=north;fillColor=#5A30B5;strokeColor=#ffffff;dashed=0;verticalLabelPosition=bottom;verticalAlign=top;align=center;html=1;fontSize=12;fontStyle=0;aspect=fixed;shape=mxgraph.aws4.resourceIcon;resIcon=mxgraph.aws4.kinesis_data_streams;" vertex="1" parent="1">
          <mxGeometry x="280" y="220" width="78" height="78" as="geometry" />
        </mxCell>
        <mxCell id="6LP01InCkN6K7pd2CZUg-13" value="Shard 5 (New)" style="rounded=0;whiteSpace=wrap;html=1;fillColor=#dae8fc;strokeColor=#6c8ebf;" vertex="1" parent="1">
          <mxGeometry x="505" y="415" width="120" height="30" as="geometry" />
        </mxCell>
        <mxCell id="6LP01InCkN6K7pd2CZUg-14" value="Shard 3" style="rounded=0;whiteSpace=wrap;html=1;fillColor=#e1d5e7;strokeColor=#9673a6;" vertex="1" parent="1">
          <mxGeometry x="505" y="455" width="120" height="30" as="geometry" />
        </mxCell>
        <mxCell id="6LP01InCkN6K7pd2CZUg-15" value="" style="sketch=0;points=[[0,0,0],[0.25,0,0],[0.5,0,0],[0.75,0,0],[1,0,0],[0,1,0],[0.25,1,0],[0.5,1,0],[0.75,1,0],[1,1,0],[0,0.25,0],[0,0.5,0],[0,0.75,0],[1,0.25,0],[1,0.5,0],[1,0.75,0]];outlineConnect=0;fontColor=#232F3E;gradientColor=#945DF2;gradientDirection=north;fillColor=#5A30B5;strokeColor=#ffffff;dashed=0;verticalLabelPosition=bottom;verticalAlign=top;align=center;html=1;fontSize=12;fontStyle=0;aspect=fixed;shape=mxgraph.aws4.resourceIcon;resIcon=mxgraph.aws4.kinesis_data_streams;" vertex="1" parent="1">
          <mxGeometry x="530" y="220" width="78" height="78" as="geometry" />
        </mxCell>
        <mxCell id="6LP01InCkN6K7pd2CZUg-20" value="Split" style="text;html=1;align=center;verticalAlign=middle;resizable=0;points=[];autosize=1;strokeColor=none;fillColor=none;" vertex="1" parent="1">
          <mxGeometry x="420" y="320" width="50" height="30" as="geometry" />
        </mxCell>
        <mxCell id="6LP01InCkN6K7pd2CZUg-21" value="Split - &lt;b&gt;Increase&amp;nbsp;&lt;/b&gt;capacity and cost" style="text;html=1;align=center;verticalAlign=middle;resizable=0;points=[];autosize=1;strokeColor=none;fillColor=none;fontSize=22;" vertex="1" parent="1">
          <mxGeometry x="270" y="150" width="350" height="40" as="geometry" />
        </mxCell>
        <mxCell id="6LP01InCkN6K7pd2CZUg-24" value="Shard 4 (New)" style="rounded=0;whiteSpace=wrap;html=1;fillColor=#dae8fc;strokeColor=#6c8ebf;" vertex="1" parent="1">
          <mxGeometry x="505" y="375" width="120" height="30" as="geometry" />
        </mxCell>
        <mxCell id="6LP01InCkN6K7pd2CZUg-25" value="Shard 1" style="rounded=0;whiteSpace=wrap;html=1;fillColor=#fff2cc;strokeColor=#d6b656;" vertex="1" parent="1">
          <mxGeometry x="505" y="335" width="120" height="30" as="geometry" />
        </mxCell>
      </root>
    </mxGraphModel>
  </diagram>
</mxfile>
